<?xml version="1.0" standalone="no"?>
<!DOCTYPE svg PUBLIC "-//W3C//DTD SVG 20010904//EN"
 "http://www.w3.org/TR/2001/REC-SVG-20010904/DTD/svg10.dtd">
<svg version="1.0" xmlns="http://www.w3.org/2000/svg"
 width="1280.000000pt" height="1280.000000pt" viewBox="0 0 1280.000000 1280.000000"
 preserveAspectRatio="xMidYMid meet">
<metadata>
Created by potrace 1.15, written by Peter Selinger 2001-2017
</metadata>
<g transform="translate(0.000000,1280.000000) scale(0.100000,-0.100000)"
fill="#000000" stroke="none">
<path d="M6429 11925 c-52 -25 -109 -53 -126 -63 l-33 -17 0 -245 0 -245 -133
-23 c-340 -57 -710 -182 -1037 -348 -188 -96 -304 -180 -463 -334 -400 -386
-630 -834 -719 -1395 -30 -191 -33 -665 -5 -845 81 -512 262 -908 561 -1230
179 -192 373 -360 536 -464 154 -99 547 -277 805 -366 103 -35 348 -105 438
-124 l27 -6 0 -1405 0 -1405 -52 0 c-124 0 -304 47 -439 115 -130 64 -232 138
-344 250 -95 95 -102 105 -134 190 -69 179 -122 378 -166 613 l-25 134 -81
125 c-76 116 -84 124 -108 118 -75 -18 -1076 -287 -1082 -291 -9 -5 -8 -15 22
-209 37 -249 114 -506 268 -901 158 -404 471 -798 816 -1025 290 -192 652
-295 1152 -331 l172 -12 3 -260 3 -261 102 -185 c56 -102 108 -193 116 -203
12 -18 25 -17 329 30 l316 48 6 50 c3 27 6 236 6 462 l0 413 23 5 c294 64 486
129 722 245 447 218 801 532 1089 965 76 114 196 347 249 482 83 211 145 472
173 723 24 229 16 565 -19 750 -82 426 -237 731 -511 1006 -198 198 -394 323
-752 483 -322 143 -436 182 -753 257 l-163 39 6 400 c3 220 11 868 17 1440 6
572 12 1041 14 1043 6 6 81 -37 153 -88 299 -210 473 -546 551 -1058 10 -67
20 -125 23 -127 3 -3 76 -15 164 -26 l159 -22 540 97 c297 53 548 99 558 102
21 6 21 9 2 162 -81 655 -323 1176 -726 1568 -341 330 -768 526 -1371 629
l-38 6 0 289 0 290 -49 0 c-53 0 -444 16 -602 25 l-96 5 -94 -45z m-159 -3100
l0 -1395 -27 6 c-117 28 -350 125 -427 176 -237 160 -392 362 -485 636 -55
158 -72 265 -78 487 -5 175 -3 216 16 324 61 355 245 677 516 901 92 75 199
144 293 188 71 32 167 70 185 71 4 1 7 -627 7 -1394z m1116 -2826 c86 -28 210
-73 275 -101 106 -44 124 -56 173 -109 94 -101 159 -232 203 -404 20 -82 26
-133 30 -282 9 -311 -32 -531 -144 -773 -97 -209 -290 -448 -469 -583 -80 -60
-220 -148 -259 -163 -17 -7 -18 10 -12 447 4 250 9 733 12 1074 6 684 13 945
25 945 5 0 79 -23 166 -51z"/>
</g>
</svg>
